<?xml version="1.0" encoding="utf-8"?>
<!-- Generator: Adobe Illustrator 19.0.0, SVG Export Plug-In . SVG Version: 6.00 Build 0)  -->
<svg xmlns="http://www.w3.org/2000/svg" xmlns:xlink="http://www.w3.org/1999/xlink" version="1.1" id="Layer_1" x="0px" y="0px" viewBox="0 0 1096 780" style="enable-background:new 0 0 1096 780;" xml:space="preserve">
<style type="text/css">
	.st0{fill:#0A2F37;}
	.st1{fill:#FFFFFF;}
	.st2{fill:#FFFFFF;stroke:#231F20;stroke-width:2.3009;}
	.st3{fill:#FFFFFF;stroke:#231F20;stroke-width:2.254;}
	.st4{fill:#FFFFFF;stroke:#231F20;stroke-width:2.0755;}
	.st5{fill:#FFFFFF;stroke:#231F20;stroke-width:2.0332;}
	.st6{fill:#FFFFFF;stroke:#231F20;stroke-width:1.8837;}
	.st7{fill:#FFFFFF;stroke:#231F20;stroke-width:1.8454;}
	.st8{fill:#010101;}
	.st9{fill-rule:evenodd;clip-rule:evenodd;fill:#0A2F37;}
	.st10{fill-rule:evenodd;clip-rule:evenodd;fill:#FFFFFF;}
</style>

<g id="CREATED_BY_DIANAZ_DESIGNZ">
	<path class="st1" d="M457.7,894.6v-1c0-0.4-0.4-1.1-1.1-1.1c-0.9,0-1.3,0.7-1.3,1.1v7.6c0,0.4,0.4,1.1,1.3,1.1   c0.7,0,1.1-0.7,1.1-1.1v-1h2.5v1c0,1.3-1.1,3-3.7,3c-2.8,0-3.8-1.6-3.8-2.9v-7.7c0-1.3,1-3,3.8-3c2.5,0,3.7,1.6,3.7,3v1H457.7z"/>
	<path class="st1" d="M467.6,904l-2.4-5.3c-0.3,0-0.7,0-0.8,0v5.3h-2.5v-13.2h4.2c2.4,0,3.6,1.7,3.6,3.8c0,2-0.9,3.2-2.1,3.8   l2.7,5.6H467.6z M464.4,896.7h0.8c1.6,0,2.1-0.2,2.1-2.1c0-1.1-0.3-1.9-1.2-1.9h-1.6V896.7z"/>
	<path class="st1" d="M473.9,892.7v3.3h2.6v1.9h-2.6v4.3h3.8v1.9h-6.3v-13.2h6.1v1.9H473.9z"/>
	<path class="st1" d="M484,900.9h-2.4l-0.5,3.1h-2.4l2.9-13.2h2.5L487,904h-2.5L484,900.9z M483.6,899l-0.8-4.7h-0.1L482,899H483.6z   "/>
	<path class="st1" d="M495.7,892.7h-2.6V904h-2.5v-11.4H488v-1.9h7.7V892.7z"/>
	<path class="st1" d="M499.7,892.7v3.3h2.6v1.9h-2.6v4.3h3.8v1.9h-6.3v-13.2h6.1v1.9H499.7z"/>
	<path class="st1" d="M512.6,894.6v5.7c0,2-1,3.8-3.1,3.8H505v-13.2h4.5c1.4,0,2.6,0.9,2.9,2.2C512.6,893.5,512.6,894,512.6,894.6z    M509,902.1c1,0,1.3-0.8,1.3-1.9v-5.7c0-1.1-0.3-1.9-1.3-1.9h-1.5v9.4H509z"/>
	<path class="st1" d="M525.6,900.2c0,2.1-1.3,3.8-3.7,3.8h-3.7v-13.2h3.3c2.3,0,3.7,1.2,3.7,3.3c0,1.1-0.5,2.4-1.6,2.8   C524.8,897.4,525.6,898.4,525.6,900.2z M520.7,895.8h0.1c1.8,0,2.1-0.4,2.1-1.6c0-0.9-0.4-1.5-1.3-1.5h-0.9V895.8z M521.5,902.1   c1,0,1.7-0.8,1.7-1.9c0-1.4-0.5-2.4-2.1-2.4h-0.5v4.3H521.5z"/>
	<path class="st1" d="M532,904h-2.4v-5.1l-2.9-8.1h2.4l1.7,6.4h0l1.6-6.4h2.5l-2.9,8.1V904z"/>
	<path class="st1" d="M547.8,894.6v5.7c0,2-1,3.8-3.1,3.8h-4.5v-13.2h4.5c1.4,0,2.6,0.9,2.9,2.2C547.7,893.5,547.8,894,547.8,894.6z    M544.1,902.1c1,0,1.3-0.8,1.3-1.9v-5.7c0-1.1-0.3-1.9-1.3-1.9h-1.5v9.4H544.1z"/>
	<path class="st1" d="M552.1,904h-2.5v-13.2h2.5V904z"/>
	<path class="st1" d="M558.9,900.9h-2.4L556,904h-2.4l2.9-13.2h2.5l2.9,13.2h-2.5L558.9,900.9z M558.5,899l-0.8-4.7h-0.1l-0.8,4.7   H558.5z"/>
	<path class="st1" d="M570.9,890.8V904h-2.5l-2.5-7.6h0v7.6h-2.5v-13.2h2.7l2.3,7.3h0v-7.3H570.9z"/>
	<path class="st1" d="M577.6,900.9h-2.4l-0.5,3.1h-2.4l2.9-13.2h2.5l2.9,13.2h-2.5L577.6,900.9z M577.2,899l-0.8-4.7h-0.1l-0.8,4.7   H577.2z"/>
	<path class="st1" d="M584.6,890.8v2.4l-1.3,1h-0.6l1.4-1.1h-2v-2.4H584.6z"/>
	<path class="st1" d="M594.2,892.8l-5.4,9.3h5.1v1.9h-7.7v-2.4l5.1-9h-4.7v-1.9h7.5L594.2,892.8z"/>
	<path class="st1" d="M607.3,894.6v5.7c0,2-1,3.8-3.1,3.8h-4.5v-13.2h4.5c1.4,0,2.6,0.9,2.9,2.2C607.2,893.5,607.3,894,607.3,894.6z    M603.6,902.1c1,0,1.3-0.8,1.3-1.9v-5.7c0-1.1-0.3-1.9-1.3-1.9h-1.5v9.4H603.6z"/>
	<path class="st1" d="M611.6,892.7v3.3h2.6v1.9h-2.6v4.3h3.8v1.9h-6.3v-13.2h6.1v1.9H611.6z"/>
	<path class="st1" d="M621.5,894.5v-0.5c0-0.9-0.5-1.4-1.1-1.4c-0.6,0-1.1,0.4-1.1,1c0,0.6,0.1,1,0.7,1.6l2.5,2.7   c1,1.1,1.6,1.8,1.6,3.4c0,1.9-1.7,3-3.7,3c-2,0-3.7-1.1-3.7-3v-1.4h2.5v1.2c0,0.8,0.5,1.2,1.1,1.2c0.6,0,1.1-0.4,1.1-1.2   c0-0.7-0.3-1.2-0.8-1.8l-2.1-2c-1.3-1.5-1.9-1.9-1.9-3.7c0-1.8,1.5-2.9,3.7-2.9c2.1,0,3.6,1.2,3.6,2.9v0.9H621.5z"/>
	<path class="st1" d="M628.2,904h-2.5v-13.2h2.5V904z"/>
	<path class="st1" d="M635,894.6v-1c0-0.4-0.4-1.1-1.1-1.1c-0.9,0-1.3,0.7-1.3,1.1v7.6c0,0.4,0.4,1.1,1.3,1.1c0.9,0,1.4-0.6,1.4-1.7   v-2h-1.4v-1.9h3.7v4.1c0,1.8-1.1,3.4-3.7,3.4c-2.8,0-3.8-1.6-3.8-2.9v-7.7c0-1.3,1-3,3.8-3c2.5,0,3.7,1.6,3.7,3v1H635z"/>
	<path class="st1" d="M646.9,890.8V904h-2.5l-2.5-7.6h0v7.6h-2.5v-13.2h2.6l2.3,7.3h0v-7.3H646.9z"/>
	<path class="st1" d="M656.5,892.8l-5.4,9.3h5.1v1.9h-7.7v-2.4l5.1-9H649v-1.9h7.5L656.5,892.8z"/>
</g>
<g>
	<polygon class="st2" points="143.3,742 104.3,742 65.2,742 86.3,717.2 65.2,692.4 104.3,692.4 143.3,692.4 143.3,717.2  "/>
	<polyline class="st0" points="101.7,722.1 143.4,742 144.2,720 103.4,720.5  "/>
	<polygon class="st2" points="476.7,741.1 515.8,741.1 554.8,741.1 533.7,716.3 554.8,691.5 515.8,691.5 476.7,691.5 476.7,716.3     "/>
	<polyline class="st0" points="517,722.1 475.3,742 474.5,720 515.3,720.5  "/>
	<rect x="102.6" y="671.5" class="st3" width="413.6" height="49.6"/>
</g>
<g>
	<path class="st4" d="M119.1,497.3c-11.7,1.1-23.5,2.9-35.2,5.3c-11.7,2.4-23.5,5.5-35.2,9.4c6.3-9.6,12.7-18.9,19-28   c-6.3-5.8-12.7-11.4-19-16.8c11.7-3.9,23.5-7,35.2-9.4c11.7-2.4,23.5-4.1,35.2-5.3c0,7.5,0,14.9,0,22.4   C119.1,482.3,119.1,489.8,119.1,497.3z"/>
	<path class="st4" d="M160.4,482.5c-16.6-0.1-33.2,0.7-49.9,2.7c0-15.2,0-30.3,0-45.5c16.6-2,33.2-2.8,49.9-2.7   C160.4,452.2,160.4,467.4,160.4,482.5z"/>
	<path class="st0" d="M122.7,466c12.5,4.9,25.1,10.4,37.6,16.5c0.2-6.6,0.5-13.2,0.7-19.8c-12.3,0.1-24.6,0.6-36.9,1.8"/>
	<path class="st4" d="M500.9,528.2c11.7-1.1,23.5-2.9,35.2-5.3c11.7-2.4,23.5-5.5,35.2-9.4c-6.3-5.4-12.7-10.9-19-16.8   c6.3-9.1,12.7-18.5,19-28c-11.7,3.9-23.5,7-35.2,9.4c-11.7,2.4-23.5,4.1-35.2,5.3c0,7.5,0,14.9,0,22.4   C500.9,513.2,500.9,520.7,500.9,528.2z"/>
	<path class="st4" d="M459.6,517c16.6,0.1,33.2-0.7,49.9-2.7c0-15.2,0-30.3,0-45.5c-16.6,2-33.2,2.8-49.9,2.7   C459.6,486.7,459.6,501.9,459.6,517z"/>
	<path class="st0" d="M497.3,497.6c-12.5,7.1-25.1,13.5-37.6,19.4c-0.2-6.6-0.5-13.2-0.7-19.8c12.3,0.2,24.6,0,36.9-0.9"/>
	<path class="st5" d="M496.6,496.7c-124.4,10.6-248.7-42.3-373.1-31.7c0-14.9,0-29.8,0-44.8c124.4-10.6,248.7,42.3,373.1,31.7   C496.6,466.9,496.6,481.8,496.6,496.7z"/>
	<path class="st0" d="M109.8,486c3.3,3.9,6.6,7.7,9.8,11.7c0-4.5,0-9.1,0-13.6c-3,0.4-6,0.8-9,1.2"/>
</g>
<g>
	<path class="st4" d="M117.7,398.2c-11.7,2.7-23.3,5.6-34.9,8.8c-11.6,3.2-23.1,6.6-34.6,10.3c3.9-9.1,8-18.2,12.3-27.2   c-8.5-5.3-17.2-10.4-26-15.4c12.1-3.9,24.2-7.5,36.4-10.9c12.2-3.4,24.4-6.5,36.7-9.3c1.7,7.3,3.4,14.5,5,21.8   C114.4,383.7,116,390.9,117.7,398.2z"/>
	<path class="st4" d="M156.7,377c-16.9,3-33.7,6.6-50.5,10.6c-3.6-14.7-7.1-29.5-10.7-44.2c17.6-4.3,35.3-8,53.1-11.2   C151.3,347.2,154,362.1,156.7,377z"/>
	<path class="st0" d="M114.5,367.2c14.2,2.9,28.3,6.2,42.1,9.8c-0.9-6.6-1.8-13.1-2.8-19.7c-12.8,2.4-25.5,5.1-38.1,8.1"/>
	<path class="st4" d="M502.3,398.2c11.7,2.7,23.3,5.6,34.9,8.8c11.6,3.2,23.1,6.6,34.6,10.3c-3.9-9.1-8-18.2-12.3-27.2   c8.5-5.3,17.2-10.4,26-15.4c-12.1-3.9-24.2-7.5-36.4-10.9c-12.2-3.4-24.4-6.5-36.7-9.3c-1.7,7.3-3.4,14.5-5,21.8   C505.7,383.7,504,390.9,502.3,398.2z"/>
	<path class="st4" d="M463.3,377c16.9,3,33.7,6.6,50.5,10.6c3.6-14.7,7.1-29.5,10.7-44.2c-17.6-4.3-35.3-8-53.1-11.2   C468.7,347.2,466,362.1,463.3,377z"/>
	<path class="st0" d="M505.5,367.2c-14.2,2.9-28.3,6.2-42.1,9.8c0.9-6.6,1.8-13.1,2.8-19.7c12.8,2.4,25.5,5.1,38.1,8.1"/>
	<path class="st5" d="M505.1,366.2c-128.3-29-261.6-29-389.9,0c-3.3-14.6-6.6-29.1-9.8-43.7c134.8-30.4,274.8-30.4,409.6,0   C511.6,337,508.3,351.6,505.1,366.2z"/>
	<path class="st0" d="M105.5,388.4c4.3,3.3,8.6,6.7,12.8,10.1c-1-4.4-2-8.8-3.1-13.3c-3,0.8-6,1.5-9,2.3"/>
	<polyline class="st0" points="514.8,388.3 502.3,398.2 505.1,385.5  "/>
</g>
<g>
	<path class="st6" d="M126.7,265c-10,7.4-19.6,15.6-28.8,24.4c-9.2,8.8-18,18.3-26.3,28.5c-0.8-9.8-1.1-19.7-1-29.8   c-10,0.8-20.2,2.2-30.5,4.1c9.4-11.5,19.3-22.3,29.7-32.2c10.4-10,21.3-19.2,32.6-27.6c4,5.4,8.1,10.9,12.1,16.3   C118.6,254.1,122.6,259.6,126.7,265z"/>
	<path class="st6" d="M157.6,231.4c-15.8,8.6-31,18.5-45.4,29.9c-8.5-10.8-17-21.6-25.6-32.4c16.3-12.9,33.4-24.2,51.2-33.8   C144.5,207.2,151,219.3,157.6,231.4z"/>
	<path class="st0" d="M113.3,240c14.9-4.1,29.7-6.9,44.2-8.6c-2.6-5.4-5.3-10.8-7.9-16.2c-12.3,6.8-24.2,14.4-35.7,22.8"/>
	<path class="st6" d="M493.4,265c10,7.4,19.6,15.6,28.8,24.4c9.2,8.8,18,18.3,26.3,28.5c0.8-9.8,1.1-19.7,1-29.8   c10,0.8,20.2,2.2,30.5,4.1c-9.4-11.5-19.3-22.3-29.7-32.2c-10.4-10-21.3-19.2-32.6-27.6c-4,5.4-8.1,10.9-12.1,16.3   C501.4,254.1,497.4,259.6,493.4,265z"/>
	<path class="st6" d="M462.4,231.4c15.8,8.6,31,18.5,45.4,29.9c8.5-10.8,17-21.6,25.6-32.4c-16.3-12.9-33.4-24.2-51.2-33.8   C475.6,207.2,469,219.3,462.4,231.4z"/>
	<path class="st0" d="M506.7,240c-14.9-4.1-29.7-6.9-44.1-8.6c2.6-5.4,5.3-10.8,7.9-16.2c12.3,6.8,24.2,14.4,35.7,22.8"/>
	<path class="st7" d="M506.6,238.9c-116.7-84.2-276.3-84.2-393-0.1c-7.9-11-15.8-22-23.7-33c130.8-94.3,309.7-94.3,440.4,0.1   C522.4,216.9,514.5,227.9,506.6,238.9z"/>
	<path class="st0" d="M111.9,262.3c5.2,0.8,10.4,1.7,15.5,2.7c-2.4-3.3-4.9-6.6-7.3-9.9c-2.6,2-5.2,4.1-7.8,6.2"/>
	<polyline class="st0" points="507.8,262.6 493.2,265.6 500.4,256 507.8,261.3  "/>
</g>
<g>
	<polygon class="st4" points="119.1,121.6 83.9,121.6 48.6,121.6 67.7,99.2 48.6,76.8 83.9,76.8 119.1,76.8 119.1,99.2  "/>
	<rect x="110.6" y="63.2" class="st4" width="49.9" height="45.5"/>
	<polyline class="st0" points="122.7,90.6 160.3,108.6 161.1,88.7 124.2,89.2  "/>
	<polygon class="st4" points="500.9,121.6 536.2,121.6 571.4,121.6 552.4,99.2 571.4,76.8 536.2,76.8 500.9,76.8 500.9,99.2  "/>
	<rect x="459.6" y="63.2" class="st4" width="49.9" height="45.5"/>
	<polyline class="st0" points="497.3,90.6 459.7,108.6 459,88.7 495.8,89.2  "/>
	<rect x="123.5" y="44.9" class="st5" width="373.1" height="44.8"/>
	<polyline class="st0" points="109.8,109.3 119.6,122 119.6,108.4 110.6,108.6  "/>
	<polyline class="st0" points="510.2,109.4 501,121.6 500.3,107.8  "/>
	<path class="st8" d="M509.1,108.1"/>
</g>
<g>
	<path class="st4" d="M119.1,651.6c-11.7,0.7-23.5,1.2-35.2,1.5c-11.7,0.4-23.5,0.6-35.2,0.6c6.3-7.5,12.7-15,19-22.6   c-6.3-7.3-12.7-14.7-19-22.2c11.7,0,23.5-0.2,35.2-0.6c11.7-0.4,23.5-0.9,35.2-1.5c0,7.5,0,14.9,0,22.4   C119.1,636.6,119.1,644.1,119.1,651.6z"/>
	<path class="st4" d="M160.4,635.9c-16.6,1.3-33.2,2.4-49.9,3.2c0-15.2,0-30.3,0-45.5c16.6-0.8,33.2-1.9,49.9-3.2   C160.4,605.6,160.4,620.7,160.4,635.9z"/>
	<path class="st0" d="M122.7,620.4c12.5,5.3,25.1,10.4,37.6,15.4c0.2-6.6,0.5-13.3,0.7-19.9c-12.3,1.1-24.6,2.1-36.9,3"/>
	<path class="st4" d="M500.9,614.9c11.7-0.7,23.5-1.2,35.2-1.5c11.7-0.4,23.5-0.6,35.2-0.6c-6.3-7.5-12.7-14.8-19-22.2   c6.3-7.6,12.7-15.1,19-22.6c-11.7,0-23.5,0.2-35.2,0.6c-11.7,0.4-23.5,0.9-35.2,1.5c0,7.5,0,14.9,0,22.4   C500.9,600,500.9,607.4,500.9,614.9z"/>
	<path class="st4" d="M459.6,604.8c16.6-1.3,33.2-2.4,49.9-3.2c0-15.2,0-30.3,0-45.5c-16.6,0.8-33.2,1.9-49.9,3.2   C459.6,574.5,459.6,589.6,459.6,604.8z"/>
	<path class="st0" d="M497.3,584.2c-12.5,6.7-25.1,13.6-37.6,20.5c-0.2-6.6-0.5-13.2-0.7-19.8c12.3-0.8,24.6-1.6,36.9-2.1"/>
	<path class="st5" d="M496.6,583.3c-124.4,7.2-248.7,28.9-373.1,36.2c0-14.9,0-29.8,0-44.8c124.4-7.2,248.7-29,373.1-36.2   C496.6,553.5,496.6,568.4,496.6,583.3z"/>
	<path class="st0" d="M109.8,639.8c3.3,4.1,6.6,8.2,9.8,12.3c0-4.5,0-9.1,0-13.6c-3,0.2-6,0.5-9,0.7"/>
	<path class="st0" d="M510.2,602.2c-3.1,4.2-6.1,8.4-9.2,12.7c-0.2-4.6-0.4-9.2-0.6-13.7"/>
	<path class="st8" d="M509.1,599.3"/>
</g>
<g>
	<polygon class="st1" points="783.3,231.8 723.8,180.3 664.3,231.8 664.3,135.9 664.3,40 723.8,40 783.3,40 783.3,135.9  "/>
	<polygon class="st1" points="898.3,231.8 860.1,180.3 821.9,231.8 821.9,135.9 821.9,40 860.1,40 898.3,40 898.3,135.9  "/>
	<g>
		<path class="st1" d="M940,36.8V235c0,0,37.4-50.4,39.8-53.6c2.4,3.2,39.8,53.6,39.8,53.6V36.8H940z M1016.5,40    c0,3.1,0,176.5,0,185.3c-5-6.7-36.6-49.3-36.6-49.3s-31.7,42.6-36.6,49.3c0-8.8,0-182.2,0-185.3C946.2,40,1013.5,40,1016.5,40z"/>
	</g>
</g>
<g>
	<path class="st9" d="M908.3,327.6c0.6-5.4,1.1-10.9,1.7-16.3c19.7,1.9,39.4,4.7,58.9,8.4C948.3,321.4,928.1,324,908.3,327.6z"/>
	<g>
		<path class="st10" d="M706.4,262.9c89.6-16.4,181.6-16.4,271.3,0c-3.5,18-7,35.9-10.4,53.9c-82.7-15.1-167.7-15.1-250.4,0    C713.3,298.9,709.9,280.9,706.4,262.9z"/>
		<path class="st10" d="M1015.3,347.8c-33.6-8.9-67.7-15.2-102.1-18.9c19-3.1,38.3-5.4,58-6.8c2.6-12.9,5.2-25.9,7.8-38.8    c17.2,3.3,34.2,7.2,51.2,11.7c-8.9,7.1-17.6,14.4-26,21.8C1008.2,327.1,1011.9,337.4,1015.3,347.8z"/>
		<path class="st10" d="M679.9,316.7c-8.5-7.4-17.1-14.7-26.1-21.7c17-4.5,34.1-8.4,51.3-11.7c2.6,12.9,5.2,25.9,7.8,38.8    c19.7,1.4,39.1,3.7,58.1,6.8c-34.5,3.6-68.7,9.9-102.4,18.9C672.1,337.4,675.9,327.1,679.9,316.7z"/>
	</g>
	<path class="st9" d="M715.2,319.6c19.6-3.6,39.3-6.4,59-8.4c0.6,5.4,1.1,10.9,1.7,16.3C756.1,324,735.9,321.3,715.2,319.6z"/>
</g>
<polygon id="Banner_1_" class="st1" points="1061.2,427.6 842,427.6 622.8,427.6 636.7,398.8 622.8,370.1 842,370.1 1061.2,370.1   1047.3,398.8 "/>
<g id="Banner_3_">
	<path class="st1" d="M1061.2,521.7c-73.1-28.8-146.1-14.4-219.2,0c-73.1,14.4-146.1,28.8-219.2,0c4.6-7.8,9.2-15.7,13.9-23.8   c-4.6-11.1-9.2-22.3-13.9-33.7c73.1,28.8,146.1,14.4,219.2,0c73.1-14.4,146.1-28.8,219.2,0c-4.6,7.8-9.2,15.7-13.9,23.8   C1051.9,499.1,1056.5,510.3,1061.2,521.7z"/>
</g>
<path class="st10" d="M1061.5,626.1h-60.1l18.4-12.1v-40.9h41.7l-22.5,25L1061.5,626.1z M668.6,555.4h346.7v53H668.6V555.4z   M622.5,626.1l22.5-28l-22.5-25h41.7V614l18.4,12.1H622.5z"/>
<g>
	<path class="st10" d="M1060.3,725.1c-19.9-9.6-39.8-15.3-59.7-18.1c6.1-3.1,12.2-6,18.3-8.6c0-13.6,0-27.1,0-40.7   c13.8,3.2,27.6,8,41.5,14.7c-7.5,4.7-14.9,9.9-22.4,15.6C1045.3,699.9,1052.8,712.2,1060.3,725.1z M669.6,670.5   c114.9,24.2,229.9-55.5,344.8-31.3c0,17.6,0,35.1,0,52.7c-114.9-24.2-229.9,55.5-344.8,31.3C669.6,705.6,669.6,688.1,669.6,670.5z    M623.8,725.1c7.5-5.7,14.9-11.9,22.4-18.6c-7.5-10.8-14.9-22.2-22.4-34c13.8,6.7,27.6,11.4,41.5,14.7c0,13.6,0,27.1,0,40.7   c6.1,5.4,12.2,10.6,18.3,15.4C663.6,740.4,643.7,734.7,623.8,725.1z"/>
</g>
</svg>
